<svg width="363" height="50" viewBox="0 0 363 50" fill="none" xmlns="http://www.w3.org/2000/svg">
<path d="M38 24.6L45.8 16.8C47.6 15 47.6 12.2 45.8 10.4L34.7 21.5L32.7 19.5L40.6 11.6C42.4 9.80001 42.4 7.00001 40.6 5.20001L29.4 16.4L27.4 14.4L35.4 6.40001C37.2 4.60001 37.2 1.8 35.4 0L24.1 11.1L16.9 3.8C15.1 2 12.3 2 10.5 3.8L20.9 14.2L18.8 16.3L11.6 9.10001C9.80001 7.30001 6.99998 7.30001 5.19998 9.10001L15.6 19.5L13.6 21.5L6.39999 14.3C4.59999 12.5 1.8 12.5 0 14.3L10.2 24.5L2.39999 32.3C0.599994 34.1 0.599994 36.9 2.39999 38.7L13.5 27.6L15.5 29.6L7.60001 37.5C5.80001 39.3 5.80001 42.1 7.60001 43.9L18.8 32.7L20.8 34.7L12.8 42.7C11 44.5 11 47.3 12.8 49.1L24 37.9L31.2 45.2C33 47 35.8 47 37.6 45.2L27.2 34.8L29.3 32.7L36.5 39.9C38.3 41.7 41.1 41.7 42.9 39.9L32.5 29.5L34.5 27.5L41.7 34.7C43.5 36.5 46.3 36.5 48.1 34.7L38 24.6ZM24.1 17.4L26.1 19.4L24 21.5L22 19.5L24.1 17.4ZM18.8 26.4L17 24.6L18.8 22.8L20.6 24.7L18.8 26.4ZM24.1 31.6L22.1 29.6L24.2 27.5L26.2 29.5L24.1 31.6ZM27.6 24.5L29.4 22.7L31.2 24.5L29.4 26.3L27.6 24.5Z" fill="#201B21"/>
<path d="M90.1504 9.00781V41H83.5586L70.7046 19.5547V41H64.1128V9.00781H70.7046L83.5806 30.4751V9.00781H90.1504ZM94.479 29.3545V28.8931C94.479 27.1499 94.728 25.5459 95.2261 24.0811C95.7241 22.6016 96.4492 21.3198 97.4014 20.2358C98.3535 19.1519 99.5254 18.3096 100.917 17.709C102.309 17.0938 103.905 16.7861 105.707 16.7861C107.509 16.7861 109.113 17.0938 110.519 17.709C111.925 18.3096 113.104 19.1519 114.057 20.2358C115.023 21.3198 115.756 22.6016 116.254 24.0811C116.752 25.5459 117.001 27.1499 117.001 28.8931V29.3545C117.001 31.083 116.752 32.687 116.254 34.1665C115.756 35.6313 115.023 36.9131 114.057 38.0117C113.104 39.0957 111.933 39.938 110.541 40.5386C109.149 41.1392 107.553 41.4395 105.751 41.4395C103.949 41.4395 102.345 41.1392 100.939 40.5386C99.5474 39.938 98.3682 39.0957 97.4014 38.0117C96.4492 36.9131 95.7241 35.6313 95.2261 34.1665C94.728 32.687 94.479 31.083 94.479 29.3545ZM100.807 28.8931V29.3545C100.807 30.3506 100.895 31.2808 101.071 32.145C101.247 33.0093 101.525 33.771 101.906 34.4302C102.301 35.0747 102.814 35.5801 103.444 35.9463C104.074 36.3125 104.843 36.4956 105.751 36.4956C106.63 36.4956 107.384 36.3125 108.014 35.9463C108.644 35.5801 109.149 35.0747 109.53 34.4302C109.911 33.771 110.189 33.0093 110.365 32.145C110.556 31.2808 110.651 30.3506 110.651 29.3545V28.8931C110.651 27.9263 110.556 27.0181 110.365 26.1685C110.189 25.3042 109.904 24.5425 109.508 23.8833C109.127 23.2095 108.622 22.6821 107.992 22.3013C107.362 21.9204 106.601 21.73 105.707 21.73C104.813 21.73 104.052 21.9204 103.422 22.3013C102.807 22.6821 102.301 23.2095 101.906 23.8833C101.525 24.5425 101.247 25.3042 101.071 26.1685C100.895 27.0181 100.807 27.9263 100.807 28.8931ZM127.218 22.1475V41H120.868V17.2256H126.823L127.218 22.1475ZM126.339 28.2778H124.582C124.582 26.6226 124.779 25.0991 125.175 23.7075C125.585 22.3013 126.178 21.0854 126.955 20.0601C127.746 19.02 128.72 18.2144 129.877 17.6431C131.034 17.0718 132.375 16.7861 133.898 16.7861C134.953 16.7861 135.919 16.9473 136.798 17.2695C137.677 17.5771 138.432 18.0679 139.062 18.7417C139.706 19.4009 140.204 20.2651 140.556 21.3345C140.907 22.3892 141.083 23.6562 141.083 25.1357V41H134.755V25.8389C134.755 24.7549 134.608 23.9199 134.315 23.334C134.022 22.748 133.605 22.3379 133.063 22.1035C132.536 21.8691 131.898 21.752 131.151 21.752C130.331 21.752 129.613 21.9204 128.998 22.2573C128.397 22.5942 127.899 23.063 127.504 23.6636C127.108 24.2495 126.815 24.938 126.625 25.729C126.435 26.52 126.339 27.3696 126.339 28.2778ZM140.49 27.5527L138.227 27.8384C138.227 26.2856 138.417 24.8428 138.798 23.5098C139.193 22.1768 139.772 21.0049 140.534 19.9941C141.31 18.9834 142.27 18.1997 143.412 17.6431C144.555 17.0718 145.873 16.7861 147.367 16.7861C148.51 16.7861 149.55 16.9546 150.487 17.2915C151.425 17.6138 152.223 18.1338 152.882 18.8516C153.556 19.5547 154.069 20.4775 154.42 21.6201C154.787 22.7627 154.97 24.1616 154.97 25.8169V41H148.62V25.8169C148.62 24.7183 148.473 23.8833 148.18 23.312C147.902 22.7261 147.492 22.3232 146.95 22.1035C146.422 21.8691 145.792 21.752 145.06 21.752C144.298 21.752 143.632 21.9058 143.061 22.2134C142.489 22.5063 142.013 22.9165 141.632 23.4438C141.251 23.9712 140.966 24.5864 140.775 25.2896C140.585 25.978 140.49 26.7324 140.49 27.5527ZM172.702 35.6387V25.0479C172.702 24.2861 172.577 23.6343 172.328 23.0923C172.079 22.5356 171.691 22.1035 171.164 21.7959C170.651 21.4883 169.984 21.3345 169.164 21.3345C168.461 21.3345 167.853 21.459 167.34 21.708C166.828 21.9424 166.432 22.2866 166.154 22.7407C165.875 23.1802 165.736 23.7002 165.736 24.3008H159.408C159.408 23.29 159.643 22.3306 160.111 21.4224C160.58 20.5142 161.261 19.7158 162.155 19.0273C163.048 18.3242 164.11 17.7749 165.341 17.3794C166.586 16.9839 167.978 16.7861 169.516 16.7861C171.361 16.7861 173.002 17.0938 174.438 17.709C175.873 18.3242 177.001 19.2471 177.821 20.4775C178.656 21.708 179.074 23.2461 179.074 25.0918V35.2651C179.074 36.5688 179.154 37.6382 179.315 38.4731C179.477 39.2935 179.711 40.0112 180.019 40.6265V41H173.625C173.317 40.3555 173.083 39.5498 172.921 38.583C172.775 37.6016 172.702 36.6201 172.702 35.6387ZM173.537 26.52L173.581 30.1016H170.043C169.208 30.1016 168.483 30.1968 167.868 30.3872C167.252 30.5776 166.747 30.8486 166.352 31.2002C165.956 31.5371 165.663 31.9326 165.473 32.3867C165.297 32.8408 165.209 33.3389 165.209 33.8809C165.209 34.4229 165.333 34.9136 165.583 35.353C165.832 35.7778 166.19 36.1147 166.659 36.3638C167.128 36.5981 167.677 36.7153 168.307 36.7153C169.259 36.7153 170.087 36.5249 170.79 36.144C171.493 35.7632 172.035 35.2944 172.416 34.7378C172.812 34.1812 173.017 33.6538 173.031 33.1558L174.701 35.8364C174.467 36.437 174.145 37.0596 173.734 37.7041C173.339 38.3486 172.833 38.9565 172.218 39.5278C171.603 40.0845 170.863 40.5459 169.999 40.9121C169.135 41.2637 168.109 41.4395 166.923 41.4395C165.414 41.4395 164.044 41.1392 162.814 40.5386C161.598 39.9233 160.631 39.0811 159.914 38.0117C159.21 36.9277 158.859 35.6973 158.859 34.3203C158.859 33.0752 159.093 31.9692 159.562 31.0024C160.031 30.0356 160.719 29.2227 161.627 28.5635C162.55 27.8896 163.7 27.3843 165.077 27.0474C166.454 26.6958 168.051 26.52 169.867 26.52H173.537ZM197.992 35.8145V7.25H204.364V41H198.629L197.992 35.8145ZM182.963 29.3984V28.937C182.963 27.1206 183.168 25.4727 183.578 23.9932C183.988 22.499 184.589 21.2173 185.38 20.1479C186.171 19.0786 187.145 18.251 188.302 17.665C189.459 17.0791 190.778 16.7861 192.257 16.7861C193.649 16.7861 194.865 17.0791 195.905 17.665C196.959 18.251 197.853 19.0859 198.585 20.1699C199.333 21.2393 199.933 22.5063 200.387 23.9712C200.841 25.4214 201.171 27.0107 201.376 28.7393V29.75C201.171 31.4053 200.841 32.9434 200.387 34.3643C199.933 35.7852 199.333 37.0303 198.585 38.0996C197.853 39.1543 196.959 39.9746 195.905 40.5605C194.85 41.1465 193.62 41.4395 192.213 41.4395C190.734 41.4395 189.416 41.1392 188.258 40.5386C187.116 39.938 186.149 39.0957 185.358 38.0117C184.582 36.9277 183.988 35.6533 183.578 34.1885C183.168 32.7236 182.963 31.127 182.963 29.3984ZM189.291 28.937V29.3984C189.291 30.3799 189.364 31.2954 189.511 32.145C189.672 32.9946 189.928 33.749 190.28 34.4082C190.646 35.0527 191.115 35.5581 191.686 35.9243C192.272 36.2759 192.982 36.4517 193.817 36.4517C194.901 36.4517 195.795 36.21 196.498 35.7266C197.201 35.2285 197.736 34.5474 198.102 33.6831C198.483 32.8188 198.703 31.8228 198.761 30.6948V27.8164C198.717 26.8936 198.585 26.0659 198.366 25.3335C198.161 24.5864 197.853 23.9492 197.443 23.4219C197.047 22.8945 196.549 22.4844 195.949 22.1914C195.363 21.8984 194.667 21.752 193.861 21.752C193.041 21.752 192.338 21.9424 191.752 22.3232C191.166 22.6895 190.69 23.1948 190.324 23.8394C189.972 24.4839 189.708 25.2456 189.533 26.1245C189.372 26.9888 189.291 27.9263 189.291 28.937ZM226.842 22.1475V41H220.492V17.2256H226.447L226.842 22.1475ZM225.963 28.2778H224.206C224.206 26.6226 224.403 25.0991 224.799 23.7075C225.209 22.3013 225.802 21.0854 226.579 20.0601C227.37 19.02 228.344 18.2144 229.501 17.6431C230.658 17.0718 231.999 16.7861 233.522 16.7861C234.577 16.7861 235.543 16.9473 236.422 17.2695C237.301 17.5771 238.056 18.0679 238.686 18.7417C239.33 19.4009 239.828 20.2651 240.18 21.3345C240.531 22.3892 240.707 23.6562 240.707 25.1357V41H234.379V25.8389C234.379 24.7549 234.232 23.9199 233.939 23.334C233.646 22.748 233.229 22.3379 232.687 22.1035C232.16 21.8691 231.522 21.752 230.775 21.752C229.955 21.752 229.237 21.9204 228.622 22.2573C228.021 22.5942 227.523 23.063 227.128 23.6636C226.732 24.2495 226.439 24.938 226.249 25.729C226.059 26.52 225.963 27.3696 225.963 28.2778ZM240.114 27.5527L237.851 27.8384C237.851 26.2856 238.041 24.8428 238.422 23.5098C238.817 22.1768 239.396 21.0049 240.158 19.9941C240.934 18.9834 241.894 18.1997 243.036 17.6431C244.179 17.0718 245.497 16.7861 246.991 16.7861C248.134 16.7861 249.174 16.9546 250.111 17.2915C251.049 17.6138 251.847 18.1338 252.506 18.8516C253.18 19.5547 253.693 20.4775 254.044 21.6201C254.411 22.7627 254.594 24.1616 254.594 25.8169V41H248.244V25.8169C248.244 24.7183 248.097 23.8833 247.804 23.312C247.526 22.7261 247.116 22.3232 246.574 22.1035C246.046 21.8691 245.417 21.752 244.684 21.752C243.922 21.752 243.256 21.9058 242.685 22.2134C242.113 22.5063 241.637 22.9165 241.256 23.4438C240.875 23.9712 240.59 24.5864 240.399 25.2896C240.209 25.978 240.114 26.7324 240.114 27.5527ZM272.326 35.6387V25.0479C272.326 24.2861 272.201 23.6343 271.952 23.0923C271.703 22.5356 271.315 22.1035 270.788 21.7959C270.275 21.4883 269.608 21.3345 268.788 21.3345C268.085 21.3345 267.477 21.459 266.964 21.708C266.452 21.9424 266.056 22.2866 265.778 22.7407C265.5 23.1802 265.36 23.7002 265.36 24.3008H259.032C259.032 23.29 259.267 22.3306 259.735 21.4224C260.204 20.5142 260.885 19.7158 261.779 19.0273C262.672 18.3242 263.734 17.7749 264.965 17.3794C266.21 16.9839 267.602 16.7861 269.14 16.7861C270.985 16.7861 272.626 17.0938 274.062 17.709C275.497 18.3242 276.625 19.2471 277.445 20.4775C278.28 21.708 278.698 23.2461 278.698 25.0918V35.2651C278.698 36.5688 278.778 37.6382 278.939 38.4731C279.101 39.2935 279.335 40.0112 279.643 40.6265V41H273.249C272.941 40.3555 272.707 39.5498 272.545 38.583C272.399 37.6016 272.326 36.6201 272.326 35.6387ZM273.161 26.52L273.205 30.1016H269.667C268.832 30.1016 268.107 30.1968 267.492 30.3872C266.876 30.5776 266.371 30.8486 265.976 31.2002C265.58 31.5371 265.287 31.9326 265.097 32.3867C264.921 32.8408 264.833 33.3389 264.833 33.8809C264.833 34.4229 264.958 34.9136 265.207 35.353C265.456 35.7778 265.814 36.1147 266.283 36.3638C266.752 36.5981 267.301 36.7153 267.931 36.7153C268.883 36.7153 269.711 36.5249 270.414 36.144C271.117 35.7632 271.659 35.2944 272.04 34.7378C272.436 34.1812 272.641 33.6538 272.655 33.1558L274.325 35.8364C274.091 36.437 273.769 37.0596 273.358 37.7041C272.963 38.3486 272.458 38.9565 271.842 39.5278C271.227 40.0845 270.487 40.5459 269.623 40.9121C268.759 41.2637 267.733 41.4395 266.547 41.4395C265.038 41.4395 263.668 41.1392 262.438 40.5386C261.222 39.9233 260.255 39.0811 259.538 38.0117C258.834 36.9277 258.483 35.6973 258.483 34.3203C258.483 33.0752 258.717 31.9692 259.186 31.0024C259.655 30.0356 260.343 29.2227 261.251 28.5635C262.174 27.8896 263.324 27.3843 264.701 27.0474C266.078 26.6958 267.675 26.52 269.491 26.52H273.161ZM289.904 22.4111V41H283.576V17.2256H289.53L289.904 22.4111ZM297.067 17.0718L296.957 22.9385C296.649 22.8945 296.276 22.8579 295.836 22.8286C295.412 22.7847 295.023 22.7627 294.672 22.7627C293.778 22.7627 293.002 22.8799 292.343 23.1143C291.698 23.334 291.156 23.6636 290.717 24.103C290.292 24.5425 289.97 25.0771 289.75 25.707C289.545 26.3369 289.428 27.0547 289.398 27.8604L288.124 27.4648C288.124 25.9268 288.278 24.5132 288.585 23.2241C288.893 21.9204 289.34 20.7852 289.926 19.8184C290.526 18.8516 291.259 18.1045 292.123 17.5771C292.987 17.0498 293.976 16.7861 295.089 16.7861C295.441 16.7861 295.8 16.8154 296.166 16.874C296.532 16.918 296.833 16.9839 297.067 17.0718ZM306.383 7.22803V41H300.055V7.22803H306.383ZM321.369 17.2256L311.042 29.0029L305.504 34.606L303.197 30.0356L307.592 24.4546L313.766 17.2256H321.369ZM314.799 41L307.768 30.0137L312.14 26.1904L322.094 41H314.799ZM334.596 41.4395C332.75 41.4395 331.095 41.1465 329.63 40.5605C328.166 39.96 326.92 39.1323 325.895 38.0776C324.884 37.0229 324.108 35.7998 323.566 34.4082C323.024 33.002 322.753 31.5078 322.753 29.9258V29.0469C322.753 27.2451 323.009 25.5972 323.522 24.103C324.035 22.6089 324.767 21.3125 325.719 20.2139C326.686 19.1152 327.858 18.2729 329.235 17.687C330.612 17.0864 332.165 16.7861 333.893 16.7861C335.578 16.7861 337.072 17.0645 338.375 17.6211C339.679 18.1777 340.771 18.9688 341.649 19.9941C342.543 21.0195 343.217 22.25 343.671 23.6855C344.125 25.1064 344.352 26.6885 344.352 28.4316V31.0684H325.456V26.8496H338.134V26.3662C338.134 25.4873 337.973 24.7036 337.65 24.0151C337.343 23.312 336.874 22.7554 336.244 22.3452C335.614 21.9351 334.809 21.73 333.827 21.73C332.992 21.73 332.274 21.9131 331.674 22.2793C331.073 22.6455 330.583 23.1582 330.202 23.8174C329.835 24.4766 329.557 25.2529 329.367 26.1465C329.191 27.0254 329.103 27.9922 329.103 29.0469V29.9258C329.103 30.8779 329.235 31.7568 329.499 32.5625C329.777 33.3682 330.165 34.064 330.663 34.6499C331.176 35.2358 331.791 35.6899 332.509 36.0122C333.241 36.3345 334.069 36.4956 334.992 36.4956C336.134 36.4956 337.196 36.2759 338.178 35.8364C339.174 35.3823 340.031 34.7012 340.749 33.793L343.825 37.1328C343.327 37.8506 342.646 38.5391 341.781 39.1982C340.932 39.8574 339.906 40.3994 338.705 40.8242C337.504 41.2344 336.134 41.4395 334.596 41.4395ZM359.601 17.2256V21.708H345.758V17.2256H359.601ZM349.186 11.3589H355.514V33.8369C355.514 34.5254 355.602 35.0527 355.778 35.4189C355.968 35.7852 356.247 36.0415 356.613 36.188C356.979 36.3198 357.44 36.3857 357.997 36.3857C358.393 36.3857 358.744 36.3711 359.052 36.3418C359.374 36.2979 359.645 36.2539 359.865 36.21L359.887 40.8682C359.345 41.0439 358.759 41.1831 358.129 41.2856C357.499 41.3882 356.803 41.4395 356.042 41.4395C354.65 41.4395 353.434 41.2124 352.394 40.7583C351.369 40.2896 350.578 39.5425 350.021 38.5171C349.464 37.4917 349.186 36.144 349.186 34.4741V11.3589Z" fill="black"/>
</svg>
